<?xml version="1.0" encoding="UTF-8" standalone="no"?>
<svg
   xmlns:ooo="http://xml.openoffice.org/svg/export"
   xmlns:dc="http://purl.org/dc/elements/1.1/"
   xmlns:cc="http://creativecommons.org/ns#"
   xmlns:rdf="http://www.w3.org/1999/02/22-rdf-syntax-ns#"
   xmlns:svg="http://www.w3.org/2000/svg"
   xmlns="http://www.w3.org/2000/svg"
   xmlns:sodipodi="http://sodipodi.sourceforge.net/DTD/sodipodi-0.dtd"
   xmlns:inkscape="http://www.inkscape.org/namespaces/inkscape"
   version="1.2"
   width="140mm"
   height="140mm"
   viewBox="0 0 14000 14000"
   preserveAspectRatio="xMidYMid"
   xml:space="preserve"
   id="svg354"
   sodipodi:docname="semi-supervised-learning-2.svg"
   style="fill-rule:evenodd;stroke-width:28.22200012;stroke-linejoin:round"
   inkscape:export-filename="/home/fvictorio/repos/pfc-anteproyecto-slides/img/semi-supervised-learning-1.png"
   inkscape:export-xdpi="240.11047"
   inkscape:export-ydpi="240.11047"
   inkscape:version="0.92.1 r15371"><metadata
     id="metadata358"><rdf:RDF><cc:Work
         rdf:about=""><dc:format>image/svg+xml</dc:format><dc:type
           rdf:resource="http://purl.org/dc/dcmitype/StillImage" /><dc:title /></cc:Work></rdf:RDF></metadata><sodipodi:namedview
     pagecolor="#ffffff"
     bordercolor="#666666"
     borderopacity="1"
     objecttolerance="10"
     gridtolerance="10"
     guidetolerance="10"
     inkscape:pageopacity="0"
     inkscape:pageshadow="2"
     inkscape:window-width="1311"
     inkscape:window-height="744"
     id="namedview356"
     showgrid="false"
     fit-margin-top="0"
     fit-margin-left="0"
     fit-margin-right="0"
     fit-margin-bottom="0"
     inkscape:zoom="2.2386612"
     inkscape:cx="89.038053"
     inkscape:cy="271.21105"
     inkscape:window-x="55"
     inkscape:window-y="24"
     inkscape:window-maximized="1"
     inkscape:current-layer="svg354" /><defs
     class="ClipPathGroup"
     id="defs210"><marker
       inkscape:stockid="Arrow2Lend"
       orient="auto"
       refY="0"
       refX="0"
       id="Arrow2Lend"
       style="overflow:visible"
       inkscape:isstock="true"><path
         id="path1192"
         style="fill:#000000;fill-opacity:1;fill-rule:evenodd;stroke:#000000;stroke-width:0.625;stroke-linejoin:round;stroke-opacity:1"
         d="M 8.7185878,4.0337352 -2.2072895,0.01601326 8.7185884,-4.0017078 c -1.7454984,2.3720609 -1.7354408,5.6174519 -6e-7,8.035443 z"
         transform="matrix(-1.1,0,0,-1.1,-1.1,0)"
         inkscape:connector-curvature="0" /></marker><marker
       inkscape:stockid="Arrow1Lstart"
       orient="auto"
       refY="0"
       refX="0"
       id="Arrow1Lstart"
       style="overflow:visible"
       inkscape:isstock="true"><path
         id="path1171"
         d="M 0,0 5,-5 -12.5,0 5,5 Z"
         style="fill:#000000;fill-opacity:1;fill-rule:evenodd;stroke:#000000;stroke-width:1.00000003pt;stroke-opacity:1"
         transform="matrix(0.8,0,0,0.8,10,0)"
         inkscape:connector-curvature="0" /></marker><clipPath
       id="presentation_clip_path"
       clipPathUnits="userSpaceOnUse"><rect
         x="0"
         y="0"
         width="21000"
         height="29700"
         id="rect204" /></clipPath><clipPath
       id="presentation_clip_path_shrink"
       clipPathUnits="userSpaceOnUse"><rect
         x="21"
         y="29"
         width="20958"
         height="29641"
         id="rect207" /></clipPath><marker
       inkscape:stockid="Arrow2Lend"
       orient="auto"
       refY="0"
       refX="0"
       id="Arrow2Lend-3"
       style="overflow:visible"
       inkscape:isstock="true"><path
         inkscape:connector-curvature="0"
         id="path1192-6"
         style="fill:#000000;fill-opacity:1;fill-rule:evenodd;stroke:#000000;stroke-width:0.625;stroke-linejoin:round;stroke-opacity:1"
         d="M 8.7185878,4.0337352 -2.2072895,0.01601326 8.7185884,-4.0017078 c -1.7454984,2.3720609 -1.7354408,5.6174519 -6e-7,8.035443 z"
         transform="matrix(-1.1,0,0,-1.1,-1.1,0)" /></marker></defs><defs
     class="TextShapeIndex"
     id="defs214"><g
       ooo:slide="id1"
       ooo:id-list="id3 id4 id5 id6 id7 id8 id9 id10 id11 id12 id13 id14 id15"
       id="g212" /></defs><defs
     class="EmbeddedBulletChars"
     id="defs246"><g
       id="bullet-char-template(57356)"
       transform="matrix(4.8828125e-4,0,0,-4.8828125e-4,0,0)"><path
         d="M 580,1141 1163,571 580,0 -4,571 Z"
         id="path216"
         inkscape:connector-curvature="0" /></g><g
       id="bullet-char-template(57354)"
       transform="matrix(4.8828125e-4,0,0,-4.8828125e-4,0,0)"><path
         d="M 8,1128 H 1137 V 0 H 8 Z"
         id="path219"
         inkscape:connector-curvature="0" /></g><g
       id="bullet-char-template(10146)"
       transform="matrix(4.8828125e-4,0,0,-4.8828125e-4,0,0)"><path
         d="M 174,0 602,739 174,1481 1456,739 Z M 1358,739 309,1346 659,739 Z"
         id="path222"
         inkscape:connector-curvature="0" /></g><g
       id="bullet-char-template(10132)"
       transform="matrix(4.8828125e-4,0,0,-4.8828125e-4,0,0)"><path
         d="M 2015,739 1276,0 H 717 l 543,543 H 174 v 393 h 1086 l -543,545 h 557 z"
         id="path225"
         inkscape:connector-curvature="0" /></g><g
       id="bullet-char-template(10007)"
       transform="matrix(4.8828125e-4,0,0,-4.8828125e-4,0,0)"><path
         d="m 0,-2 c -7,16 -16,29 -25,39 l 381,530 c -94,256 -141,385 -141,387 0,25 13,38 40,38 9,0 21,-2 34,-5 21,4 42,12 65,25 l 27,-13 111,-251 280,301 64,-25 24,25 c 21,-10 41,-24 62,-43 C 886,937 835,863 770,784 769,783 710,716 594,584 L 774,223 c 0,-27 -21,-55 -63,-84 l 16,-20 C 717,90 699,76 672,76 641,76 570,178 457,381 L 164,-76 c -22,-34 -53,-51 -92,-51 -42,0 -63,17 -64,51 -7,9 -10,24 -10,44 0,9 1,19 2,30 z"
         id="path228"
         inkscape:connector-curvature="0" /></g><g
       id="bullet-char-template(10004)"
       transform="matrix(4.8828125e-4,0,0,-4.8828125e-4,0,0)"><path
         d="M 285,-33 C 182,-33 111,30 74,156 52,228 41,333 41,471 c 0,78 14,145 41,201 34,71 87,106 158,106 53,0 88,-31 106,-94 l 23,-176 c 8,-64 28,-97 59,-98 l 735,706 c 11,11 33,17 66,17 42,0 63,-15 63,-46 V 965 c 0,-36 -10,-64 -30,-84 L 442,47 C 390,-6 338,-33 285,-33 Z"
         id="path231"
         inkscape:connector-curvature="0" /></g><g
       id="bullet-char-template(9679)"
       transform="matrix(4.8828125e-4,0,0,-4.8828125e-4,0,0)"><path
         d="M 813,0 C 632,0 489,54 383,161 276,268 223,411 223,592 c 0,181 53,324 160,431 106,107 249,161 430,161 179,0 323,-54 432,-161 108,-107 162,-251 162,-431 0,-180 -54,-324 -162,-431 C 1136,54 992,0 813,0 Z"
         id="path234"
         inkscape:connector-curvature="0" /></g><g
       id="bullet-char-template(8226)"
       transform="matrix(4.8828125e-4,0,0,-4.8828125e-4,0,0)"><path
         d="m 346,457 c -73,0 -137,26 -191,78 -54,51 -81,114 -81,188 0,73 27,136 81,188 54,52 118,78 191,78 73,0 134,-26 185,-79 51,-51 77,-114 77,-187 0,-75 -25,-137 -76,-188 -50,-52 -112,-78 -186,-78 z"
         id="path237"
         inkscape:connector-curvature="0" /></g><g
       id="bullet-char-template(8211)"
       transform="matrix(4.8828125e-4,0,0,-4.8828125e-4,0,0)"><path
         d="M -4,459 H 1135 V 606 H -4 Z"
         id="path240"
         inkscape:connector-curvature="0" /></g><g
       id="bullet-char-template(61548)"
       transform="matrix(4.8828125e-4,0,0,-4.8828125e-4,0,0)"><path
         d="m 173,740 c 0,163 58,303 173,419 116,115 255,173 419,173 163,0 302,-58 418,-173 116,-116 174,-256 174,-419 0,-163 -58,-303 -174,-418 C 1067,206 928,148 765,148 601,148 462,206 346,322 231,437 173,577 173,740 Z"
         id="path243"
         inkscape:connector-curvature="0" /></g></defs><defs
     class="TextEmbeddedBitmaps"
     id="defs248" /><g
     id="g253"
     transform="translate(-2499.3673,3980.9335)"><g
       id="id2"
       class="Master_Slide"><g
         id="bg-id2"
         class="Background" /><g
         id="bo-id2"
         class="BackgroundObjects" /></g></g><path
     style="fill:none;fill-rule:evenodd;stroke:#000000;stroke-width:27.08864212px;stroke-linecap:butt;stroke-linejoin:miter;stroke-opacity:1;marker-end:url(#Arrow2Lend)"
     d="m 2775.3394,13361.451 c 0,-12825.10945 0,-12825.10945 0,-12825.10945"
     id="path364"
     inkscape:connector-curvature="0" /><path
     style="fill:none;fill-rule:evenodd;stroke:#000000;stroke-width:23.04898834px;stroke-linecap:butt;stroke-linejoin:miter;stroke-opacity:1;marker-end:url(#Arrow2Lend-3)"
     d="m 2775.3394,13361.451 c 9285.1826,0 9285.1826,0 9285.1826,0"
     id="path364-7"
     inkscape:connector-curvature="0" /><circle
     style="fill:#aa0000;stroke-width:52.91666794;stroke-miterlimit:10;stroke-dasharray:none;opacity:1;stroke:#000000;stroke-opacity:1;fill-opacity:1"
     id="path2415"
     cx="4144.187"
     cy="1764.7841"
     r="542.69104" /><circle
     style="fill:#00aa18;fill-opacity:1;fill-rule:evenodd;stroke-width:52.91667557;stroke-linejoin:round;stroke-miterlimit:10;stroke-dasharray:none;opacity:1;stroke:#000000;stroke-opacity:1"
     id="path2415-5"
     cx="10557.808"
     cy="12026.579"
     r="542.6911" /><circle
     style="fill:#aa0000;fill-rule:evenodd;stroke-width:52.91667557;stroke-linejoin:round;stroke-miterlimit:10;stroke-dasharray:none;opacity:1;stroke:#000000;stroke-opacity:1;fill-opacity:1"
     id="path2415-3"
     cx="3749.502"
     cy="3787.5415"
     r="542.6911" /><circle
     style="fill:#aa0000;fill-rule:evenodd;stroke-width:52.91667557;stroke-linejoin:round;stroke-miterlimit:10;stroke-dasharray:none;opacity:1;stroke:#000000;stroke-opacity:1;fill-opacity:1"
     id="path2415-56"
     cx="6413.6211"
     cy="2159.4685"
     r="542.6911" /><circle
     style="fill:#aa0000;fill-rule:evenodd;stroke-width:52.91667557;stroke-linejoin:round;stroke-miterlimit:10;stroke-dasharray:none;opacity:1;stroke:#000000;stroke-opacity:1;fill-opacity:1"
     id="path2415-2"
     cx="5624.2524"
     cy="3590.1995"
     r="542.6911" /><circle
     style="fill:#aa0000;fill-rule:evenodd;stroke-width:52.91667557;stroke-linejoin:round;stroke-miterlimit:10;stroke-dasharray:none;opacity:1;stroke:#000000;stroke-opacity:1;fill-opacity:1"
     id="path2415-9"
     cx="8140.3657"
     cy="1468.7709"
     r="542.6911" /><circle
     style="fill:#aa0000;fill-rule:evenodd;stroke-width:52.91667557;stroke-linejoin:round;stroke-miterlimit:10;stroke-dasharray:none;opacity:1;stroke:#000000;stroke-opacity:1;fill-opacity:1"
     id="path2415-1"
     cx="7992.3594"
     cy="3392.8572"
     r="542.6911" /><circle
     style="fill:#aa0000;fill-rule:evenodd;stroke-width:52.91667557;stroke-linejoin:round;stroke-miterlimit:10;stroke-dasharray:none;opacity:1;stroke:#000000;stroke-opacity:1;fill-opacity:1"
     id="path2415-27"
     cx="5032.2261"
     cy="5563.6216"
     r="542.6911" /><circle
     style="fill:#aa0000;fill-rule:evenodd;stroke-width:52.91667938;stroke-linejoin:round;stroke-miterlimit:10;stroke-dasharray:none;opacity:1;stroke:#000000;stroke-opacity:1;fill-opacity:1"
     id="path2415-0"
     cx="7104.3193"
     cy="5070.2656"
     r="542.69116"
     inkscape:transform-center-x="-1233.3887"
     inkscape:transform-center-y="1332.06" /><circle
     style="fill:#00aa18;fill-opacity:1;fill-rule:evenodd;stroke-width:52.91667938;stroke-linejoin:round;stroke-miterlimit:10;stroke-dasharray:none;opacity:1;stroke:#000000;stroke-opacity:1"
     id="path2415-5-9"
     cx="8584.3857"
     cy="12322.592"
     r="542.69116" /><circle
     style="fill:#00aa18;fill-opacity:1;fill-rule:evenodd;stroke-width:52.91667938;stroke-linejoin:round;stroke-miterlimit:10;stroke-dasharray:none;opacity:1;stroke:#000000;stroke-opacity:1"
     id="path2415-5-3"
     cx="8979.0703"
     cy="10546.512"
     r="542.69116" /><circle
     style="fill:#00aa18;fill-opacity:1;fill-rule:evenodd;stroke-width:52.91667938;stroke-linejoin:round;stroke-miterlimit:10;stroke-dasharray:none;opacity:1;stroke:#000000;stroke-opacity:1"
     id="path2415-5-6"
     cx="7005.6479"
     cy="10793.189"
     r="542.69116" /><circle
     style="fill:#00aa18;fill-opacity:1;fill-rule:evenodd;stroke-width:52.91667938;stroke-linejoin:round;stroke-miterlimit:10;stroke-dasharray:none;opacity:1;stroke:#000000;stroke-opacity:1"
     id="path2415-5-0"
     cx="6808.3057"
     cy="12273.256"
     r="542.69116" /><circle
     style="fill:#00aa18;fill-opacity:1;fill-rule:evenodd;stroke-width:52.91667938;stroke-linejoin:round;stroke-miterlimit:10;stroke-dasharray:none;opacity:1;stroke:#000000;stroke-opacity:1"
     id="path2415-5-62"
     cx="10804.485"
     cy="10349.17"
     r="542.69116" /><circle
     style="fill:#00aa18;fill-opacity:1;fill-rule:evenodd;stroke-width:52.91667938;stroke-linejoin:round;stroke-miterlimit:10;stroke-dasharray:none;opacity:1;stroke:#000000;stroke-opacity:1"
     id="path2415-5-61"
     cx="9719.1025"
     cy="9115.7793"
     r="542.69116" /><circle
     style="fill:#00aa18;fill-opacity:1;fill-rule:evenodd;stroke-width:52.91667938;stroke-linejoin:round;stroke-miterlimit:10;stroke-dasharray:none;opacity:1;stroke:#000000;stroke-opacity:1"
     id="path2415-5-8"
     cx="7844.3521"
     cy="8819.7676"
     r="542.69116" /><circle
     style="fill:#00aa18;fill-opacity:1;fill-rule:evenodd;stroke-width:52.91667938;stroke-linejoin:round;stroke-miterlimit:10;stroke-dasharray:none;opacity:1;stroke:#000000;stroke-opacity:1"
     id="path2415-5-7"
     cx="5969.6016"
     cy="9411.7949"
     r="542.69116" /></svg>